<svg width="154" height="170" viewBox="0 0 154 170" fill="none" xmlns="http://www.w3.org/2000/svg">
<rect width="154" height="170" fill="white"/>
<path d="M61.7071 24.2929C61.3166 23.9024 60.6834 23.9024 60.2929 24.2929L53.9289 30.6569C53.5384 31.0474 53.5384 31.6805 53.9289 32.0711C54.3195 32.4616 54.9526 32.4616 55.3431 32.0711L61 26.4142L66.6569 32.0711C67.0474 32.4616 67.6805 32.4616 68.0711 32.0711C68.4616 31.6805 68.4616 31.0474 68.0711 30.6569L61.7071 24.2929ZM61 103H62L62 25H61H60L60 103H61Z" fill="black"/>
<path d="M139.707 103.707C140.098 103.317 140.098 102.683 139.707 102.293L133.343 95.9289C132.953 95.5384 132.319 95.5384 131.929 95.9289C131.538 96.3195 131.538 96.9526 131.929 97.3431L137.586 103L131.929 108.657C131.538 109.047 131.538 109.681 131.929 110.071C132.319 110.462 132.953 110.462 133.343 110.071L139.707 103.707ZM61 103V104H139V103V102H61V103Z" fill="black"/>
<path d="M15.0664 148C15.0664 148.552 15.5141 149 16.0664 149L25.0664 149C25.6187 149 26.0664 148.552 26.0664 148C26.0664 147.448 25.6187 147 25.0664 147L17.0664 147L17.0664 139C17.0664 138.448 16.6187 138 16.0664 138C15.5141 138 15.0664 138.448 15.0664 139L15.0664 148ZM61.0664 103L60.3593 102.293L15.3593 147.293L16.0664 148L16.7735 148.707L61.7735 103.707L61.0664 103Z" fill="black"/>
<path d="M142.16 110L144.72 102.72L142.2 96H147.06L147.58 98.06C147.88 99.28 147.96 99.9 148.04 100.56C148.12 99.9 148.22 99.26 148.52 98.06L149.04 96H153.66L151.12 102.64L153.84 110H148.9L148.4 107.94C148.12 106.76 148.02 106.1 147.92 105.38C147.8 106.12 147.68 106.84 147.4 107.94L146.88 110H142.16Z" fill="black"/>
<path d="M58.92 20V15.98L55.06 6H59.8L60.42 8.5C60.76 9.9 60.9 10.62 61.08 11.72C61.26 10.6 61.42 9.9 61.76 8.5L62.38 6H66.94L63.16 15.94V20H58.92Z" fill="black"/>
<path d="M0.6 163V159.24L4.98 153.72C5.4 153.18 5.7 152.9 6.08 152.54H1V149H11V152.5L6.6 158.14C6.14 158.74 5.84 159.04 5.4 159.44H11.4V163H0.6Z" fill="black"/>
<circle cx="61" cy="103" r="4" fill="black"/>
</svg>
